<svg width="574" height="551" viewBox="0 0 574 551" fill="none" xmlns="http://www.w3.org/2000/svg">
<path d="M449.386 496.461C497.026 496.461 535.647 460.384 535.647 415.881C535.647 371.378 497.026 335.301 449.386 335.301C401.746 335.301 363.125 371.378 363.125 415.881C363.125 460.384 401.746 496.461 449.386 496.461Z" fill="#686691"/>
<path d="M387.937 515.128L364.101 504.955L385.499 458.143L409.336 468.316L387.937 515.128Z" fill="#686691"/>
<path d="M457.007 488.661L433.171 478.488L413.66 518.382L437.496 528.555L457.007 488.661Z" fill="#686691"/>
<path d="M441.167 546.382C444.851 543.932 442.168 534.505 435.174 525.326C428.179 516.148 419.522 510.693 415.838 513.143C412.153 515.594 414.836 525.021 421.831 534.199C428.825 543.378 437.482 548.832 441.167 546.382Z" fill="#686691"/>
<path d="M392.601 533.379C396.286 530.929 393.603 521.502 386.608 512.323C379.614 503.145 370.957 497.69 367.272 500.141C363.587 502.591 366.271 512.018 373.265 521.196C380.26 530.375 388.917 535.829 392.601 533.379Z" fill="#686691"/>
<path d="M460.447 425.713C476.729 425.713 489.929 413.383 489.929 398.174C489.929 382.964 476.729 370.634 460.447 370.634C444.165 370.634 430.966 382.964 430.966 398.174C430.966 413.383 444.165 425.713 460.447 425.713Z" fill="white"/>
<path d="M449.807 394.979C455.235 394.979 459.634 390.869 459.634 385.799C459.634 380.729 455.235 376.619 449.807 376.619C444.38 376.619 439.98 380.729 439.98 385.799C439.98 390.869 444.38 394.979 449.807 394.979Z" fill="#3F3D56"/>
<path d="M406.613 315.239C413.24 286.031 446.59 267.893 481.101 274.726C515.612 281.56 538.217 310.776 531.59 339.984C524.962 369.192 499.427 370.109 464.916 363.276C430.404 356.442 399.986 344.446 406.613 315.239Z" fill="#CFCCE0"/>
<path d="M573.568 420.997C573.748 414.014 554.59 407.917 530.777 407.38C506.963 406.843 487.513 412.068 487.332 419.052C487.152 426.035 506.31 432.132 530.123 432.669C553.936 433.206 573.387 427.98 573.568 420.997Z" fill="#686691"/>
<path d="M402.531 407.436C402.712 400.452 383.553 394.356 359.74 393.819C335.927 393.282 316.476 398.507 316.296 405.491C316.115 412.474 335.273 418.571 359.086 419.108C382.9 419.645 402.35 414.419 402.531 407.436Z" fill="#2F2E41"/>
<path d="M418.035 441.19C415.869 445.619 415.675 450.67 417.496 455.233C419.317 459.795 423.004 463.495 427.745 465.519C432.486 467.542 437.894 467.724 442.778 466.023C447.662 464.322 451.623 460.878 453.789 456.449C458.3 447.226 451.23 441.9 441.357 437.686C431.484 433.472 422.546 431.967 418.035 441.19Z" fill="white"/>
<path d="M429.145 342.892C429.223 493.854 333.179 546.601 214.678 546.654C211.926 546.656 209.187 546.628 206.461 546.572C200.969 546.464 195.534 546.233 190.156 545.878C83.202 538.853 0.0730047 483.481 2.153e-05 343.087C-0.0755107 197.796 198.611 14.3517 213.512 0.787697C213.525 0.787697 213.525 0.787698 213.538 0.775372C214.104 0.258437 214.394 0 214.394 0C214.394 0 429.066 191.942 429.145 342.892Z" fill="#3B3E42"/>
<path d="M206.857 523.566L285.281 421.102L206.665 534.811L206.461 546.572C200.969 546.464 195.534 546.232 190.156 545.878L198.533 394.851L198.466 393.682L198.611 393.461L199.407 379.19L120.475 265.269L199.638 368.499L199.837 371.525L206.165 257.418L138.583 139.691L206.985 237.365L213.512 0.787678L213.538 0.000366211L213.538 0.775353L212.529 187.341L279.695 113.349L212.248 203.408L210.523 305.58L273.252 207.502L210.281 320.601L209.323 377.414L300.359 240.89L208.977 397.233L206.857 523.566Z" fill="#7D79A6"/>
<path d="M246.007 80.046C248.768 80.046 251.006 77.9556 251.006 75.377C251.006 72.7984 248.768 70.708 246.007 70.708C243.247 70.708 241.009 72.7984 241.009 75.377C241.009 77.9556 243.247 80.046 246.007 80.046Z" fill="#CFCCE0"/>
<path d="M325.978 335.908C328.738 335.908 330.976 333.818 330.976 331.239C330.976 328.66 328.738 326.57 325.978 326.57C323.218 326.57 320.98 328.66 320.98 331.239C320.98 333.818 323.218 335.908 325.978 335.908Z" fill="#CFCCE0"/>
<path d="M42.0823 370.459C44.8427 370.459 47.0804 368.368 47.0804 365.79C47.0804 363.211 44.8427 361.121 42.0823 361.121C39.3219 361.121 37.0841 363.211 37.0841 365.79C37.0841 368.368 39.3219 370.459 42.0823 370.459Z" fill="#CFCCE0"/>
<path d="M143.045 438.626C149.118 438.626 154.041 434.027 154.041 428.354C154.041 422.681 149.118 418.083 143.045 418.083C136.972 418.083 132.049 422.681 132.049 428.354C132.049 434.027 136.972 438.626 143.045 438.626Z" fill="#CFCCE0"/>
<path d="M85.0665 224.785C91.1394 224.785 96.0625 220.187 96.0625 214.514C96.0625 208.841 91.1394 204.242 85.0665 204.242C78.9936 204.242 74.0706 208.841 74.0706 214.514C74.0706 220.187 78.9936 224.785 85.0665 224.785Z" fill="#CFCCE0"/>
</svg>
